<?xml version="1.0" encoding="utf-8" ?>
<svg xmlns="http://www.w3.org/2000/svg" xmlns:xlink="http://www.w3.org/1999/xlink" width="32" height="32" viewBox="0 0 32 32">
	<defs>
		<clipPath id="clipPath4532396763">
			<path d="M0 0L32 0L32 32L0 32L0 0Z" fill-rule="nonzero" transform="matrix(1 0 0 1 -0 -0)"/>
		</clipPath>
	</defs>
	<g clip-path="url(#clipPath4532396763)">
		<path d="M18.0581 1Q15.9343 1 14.2124 2.70963Q13.6539 3.26418 13.2077 3.93108Q12.9919 4.25364 12.8951 4.44721Q12.851 4.53531 12.7906 4.61311Q12.7302 4.69092 12.6558 4.75545Q12.5814 4.81999 12.4959 4.86876Q12.4103 4.91754 12.3169 4.94868Q12.2234 4.97983 12.1257 4.99215Q12.028 5.00447 11.9297 4.99748Q11.8315 4.9905 11.7365 4.96449Q11.6415 4.93847 11.5534 4.89443Q11.4083 4.82185 11.2935 4.70711Q11.1788 4.59236 11.1062 4.44721Q11.0094 4.25364 10.7936 3.93108Q10.3474 3.26418 9.78888 2.70963Q8.06696 1 5.94314 1Q4.94066 1 4.02891 1.39871Q3.14896 1.78352 2.46542 2.48748Q1.78263 3.19068 1.40256 4.10154Q1.01105 5.03983 1.00059 6.06088Q0.977863 8.31934 1.83961 10.449Q2.63517 12.4151 4.21044 14.3356Q5.62751 16.0631 7.74436 17.8327Q9.51629 19.3139 11.9997 20.9995L12.0006 21.0001L12.0006 21.0001Q14.4847 19.3139 16.2565 17.8327Q18.3733 16.0631 19.7904 14.3356Q21.3657 12.4151 22.1613 10.449Q23.0232 8.31925 23.0007 6.06059Q22.9902 5.03983 22.5987 4.10153Q22.2187 3.19068 21.5359 2.48748Q20.8523 1.78352 19.9724 1.39871Q19.0606 1 18.0581 1ZM18.0581 -1Q19.4788 -1 20.7737 -0.433733Q22.0136 0.108461 22.9707 1.09424Q23.9181 2.06995 24.4445 3.33137Q24.9861 4.62947 25.0006 6.04066Q25.0508 11.0761 21.3367 15.604Q19.8004 17.4769 17.5393 19.3671Q15.6908 20.9125 13.1256 22.6537Q12.6165 23.0001 12.0006 23.0001Q11.3848 23.0001 10.8766 22.6543Q8.31034 20.9126 6.46163 19.3671Q4.20048 17.477 2.66412 15.604Q-1.04997 11.0761 -0.999308 6.04037Q-0.984843 4.62947 -0.443201 3.33137Q0.0831358 2.06996 1.03054 1.09424Q1.98772 0.108461 3.22757 -0.433733Q4.52247 -1 5.94314 -1Q7.57172 -1 9.04477 -0.271331Q10.2013 0.300777 11.198 1.29037Q11.8985 1.98582 12.4559 2.81892Q12.7419 3.24636 12.8951 3.55279L12.0006 4L11.1062 3.55279Q11.2594 3.24636 11.5454 2.81892Q12.1028 1.98582 12.8033 1.29037Q13.8 0.300777 14.9565 -0.271331Q16.4296 -1 18.0581 -1Z" fill-rule="nonzero" transform="matrix(1 0 0 1 3.99936 5)" fill="rgb(255, 107, 53)"/>
	</g>
</svg>
