<?xml version="1.0" encoding="utf-8" ?>
<svg xmlns="http://www.w3.org/2000/svg" xmlns:xlink="http://www.w3.org/1999/xlink" width="32" height="32" viewBox="0 0 32 32">
	<defs>
		<clipPath id="clipPath0953762976">
			<path d="M0 0L32 0L32 32L0 32L0 0Z" fill-rule="nonzero" transform="matrix(1 0 0 1 -0 -0)"/>
		</clipPath>
	</defs>
	<g clip-path="url(#clipPath0953762976)">
		<path d="M13.9788 1Q10.528 1 7.24076 2.97206Q3.77159 5.05324 0.99709 9.03028L1.00001 9.02607L1.00001 9.02607Q2.10663 10.7583 3.48826 12.187Q4.91824 13.6656 6.54628 14.719Q10.0715 17 13.9788 17Q15.9438 17 17.8654 16.3925Q19.6954 15.814 21.4088 14.7108Q23.0555 13.6506 24.4968 12.1705Q25.8969 10.7328 26.9979 9.00866Q27.0012 9.00351 27.0012 9.00094Q27.0012 8.99836 26.9998 8.9962Q25.8958 7.29112 24.4899 5.85622Q23.0389 4.37524 21.3887 3.30979Q19.6674 2.19837 17.8426 1.61432Q15.9232 1 13.9788 1L13.9788 1ZM13.9788 -1Q16.2355 -1 18.4522 -0.290493Q20.5295 0.374368 22.4736 1.62958Q24.3113 2.81611 25.9185 4.45652Q27.4653 6.03519 28.6816 7.9138Q29.0012 8.41039 29.0012 9.00094Q29.0012 9.59149 28.6835 10.0851Q27.4724 11.9816 25.9297 13.5658Q24.3295 15.209 22.4915 16.3924Q20.5532 17.6404 18.4683 18.2995Q16.2524 19 13.9788 19Q11.6836 19 9.4691 18.3017Q7.38667 17.6449 5.4598 16.3982Q3.63965 15.2205 2.05059 13.5773Q0.529327 12.0043 -0.679871 10.1114Q-1.00897 9.60205 -0.999759 8.99569Q-0.990546 8.38932 -0.6432 7.88597Q2.37598 3.55818 6.21188 1.257Q9.97414 -1 13.9788 -1L13.9788 -1Z" fill-rule="nonzero" transform="matrix(1 0 0 1 1.99993 7)" fill="rgb(255, 107, 53)"/>
		<circle cx="5" cy="5" r="5" stroke-width="2" transform="matrix(1 0 0 1 11 11)" stroke="rgb(255, 107, 53)" fill="transparent"/>
	</g>
</svg>
