<?xml version="1.0" encoding="utf-8" ?>
<svg xmlns="http://www.w3.org/2000/svg" xmlns:xlink="http://www.w3.org/1999/xlink" width="20" height="20" viewBox="0 0 20 20">
	<defs>
		<clipPath id="clipPath4706245130">
			<path d="M0 0L20 0L20 20L0 20L0 0Z" fill-rule="nonzero" transform="matrix(1 0 0 1 0 0)"/>
		</clipPath>
	</defs>
	<g clip-path="url(#clipPath4706245130)">
		<path d="M5.625 3.125L5.625 6.83594C5.625 7.18111 5.90483 7.46094 6.25 7.46094C6.59517 7.46094 6.875 7.18111 6.875 6.83594L6.875 3.125Q6.875 1.5717 5.77665 0.473349Q4.6783 -0.625 3.125 -0.625Q1.5717 -0.625 0.473349 0.473349Q-0.625001 1.5717 -0.625 3.125L-0.625 6.83594C-0.625 7.18111 -0.345175 7.46094 0 7.46094C0.345175 7.46094 0.625 7.18111 0.625 6.83594L0.625 3.125Q0.625 2.08947 1.35723 1.35723Q2.08947 0.625 3.125 0.625Q4.16053 0.625 4.89277 1.35723Q5.625 2.08947 5.625 3.125Z" fill-rule="evenodd" transform="matrix(1 0 0 1 6.875 1.28906)" fill="rgb(255, 107, 53)"/>
		<rect width="12.5" height="10.625" rx="1.875" ry="1.875" stroke-width="1.25" stroke-linejoin="round" transform="matrix(1 0 0 1 3.75 8.125)" stroke="rgb(255, 107, 53)" fill="transparent"/>
	</g>
</svg>
