<?xml version="1.0" encoding="utf-8" ?>
<svg xmlns="http://www.w3.org/2000/svg" xmlns:xlink="http://www.w3.org/1999/xlink" width="16" height="16" viewBox="0 0 16 16">
	<defs>
		<clipPath id="clipPath8602377825">
			<path d="M0 0L16 0L16 16L0 16L0 0Z" fill-rule="nonzero" transform="matrix(1 0 0 1 0 0)"/>
		</clipPath>
	</defs>
	<g clip-path="url(#clipPath8602377825)">
		<path d="M8.5 7C10.1497 7 11.6072 5.44656 11.75 3.53687C11.8209 2.5775 11.52 1.68281 10.9025 1.01812C10.2916 0.361562 9.4375 0 8.5 0C7.555 0 6.70031 0.359375 6.09375 1.01188C5.48031 1.67156 5.18125 2.56813 5.25 3.53625C5.39031 5.44625 6.8475 7 8.5 7ZM14.9806 12.7425C14.7169 11.2794 13.8934 10.0503 12.5997 9.18781C11.4506 8.42188 9.99469 8 8.5 8C7.00531 8 5.54938 8.42188 4.40031 9.1875C3.10656 10.05 2.28312 11.2791 2.01937 12.7422C1.95906 13.0775 2.04094 13.4091 2.24406 13.6519C2.33736 13.7639 2.45022 13.8504 2.58266 13.9114C2.71509 13.9724 2.85421 14.0019 3 14L14 14C14.1459 14.0021 14.2851 13.9726 14.4176 13.9117C14.5502 13.8508 14.6632 13.7643 14.7566 13.6522C14.9591 13.4094 15.0409 13.0778 14.9806 12.7425ZM2.75 8L2.75 6.75L4 6.75C4.13807 6.75 4.25592 6.70118 4.35355 6.60355C4.45118 6.50592 4.5 6.38807 4.5 6.25C4.5 6.11193 4.45118 5.99408 4.35355 5.89645C4.25592 5.79882 4.13807 5.75 4 5.75L2.75 5.75L2.75 4.5C2.75 4.36193 2.70118 4.24408 2.60355 4.14645C2.50592 4.04882 2.38807 4 2.25 4C2.11193 4 1.99408 4.04882 1.89645 4.14645C1.79882 4.24408 1.75 4.36193 1.75 4.5L1.75 5.75L0.5 5.75C0.361929 5.75 0.244078 5.79882 0.146447 5.89645C0.0488155 5.99408 -1.98682e-08 6.11193 0 6.25C-1.98682e-08 6.38807 0.0488155 6.50592 0.146447 6.60355C0.244078 6.70118 0.361929 6.75 0.5 6.75L1.75 6.75L1.75 8C1.75 8.13807 1.79882 8.25592 1.89645 8.35355C1.99408 8.45118 2.11193 8.5 2.25 8.5C2.38807 8.5 2.50592 8.45118 2.60355 8.35355C2.70118 8.25592 2.75 8.13807 2.75 8Z" fill-rule="nonzero" transform="matrix(1 0 0 1 0.5 1)" fill="rgb(255, 107, 53)"/>
	</g>
</svg>
