<?xml version="1.0" encoding="utf-8" ?>
<svg xmlns="http://www.w3.org/2000/svg" xmlns:xlink="http://www.w3.org/1999/xlink" width="20" height="20" viewBox="0 0 20 20">
	<defs>
		<clipPath id="clipPath1372109790">
			<path d="M0 0L20 0L20 20L0 20L0 0Z" fill-rule="nonzero" transform="matrix(1 0 0 1 -0 -0)"/>
		</clipPath>
	</defs>
	<g clip-path="url(#clipPath1372109790)">
		<path d="M5.625 3.125L5.625 6.83594C5.625 7.18111 5.90483 7.46094 6.25 7.46094C6.59517 7.46094 6.875 7.18111 6.875 6.83594L6.875 3.125Q6.875 1.5717 5.77665 0.473349Q4.6783 -0.625 3.125 -0.625Q1.5717 -0.625 0.473349 0.473349Q-0.625001 1.5717 -0.625 3.125L-0.625 6.83594C-0.625 7.18111 -0.345175 7.46094 0 7.46094C0.345175 7.46094 0.625 7.18111 0.625 6.83594L0.625 3.125Q0.625 2.08947 1.35723 1.35723Q2.08947 0.625 3.125 0.625Q4.16053 0.625 4.89277 1.35723Q5.625 2.08947 5.625 3.125Z" fill-rule="evenodd" transform="matrix(1 0 0 1 6.875 1.28906)" fill="rgb(75, 85, 99)"/>
		<path d="M-0.625 1.875C-0.625 0.494288 0.494288 -0.625 1.875 -0.625L10.625 -0.625C12.0057 -0.625 13.125 0.494288 13.125 1.875L13.125 8.75C13.125 10.1307 12.0057 11.25 10.625 11.25L1.875 11.25C0.494288 11.25 -0.625 10.1307 -0.625 8.75L-0.625 1.875ZM1.875 0.625C1.18464 0.625 0.625 1.18464 0.625 1.875L0.625 8.75C0.625 9.44036 1.18464 10 1.875 10L10.625 10C11.3154 10 11.875 9.44036 11.875 8.75L11.875 1.875C11.875 1.18464 11.3154 0.625 10.625 0.625L1.875 0.625Z" fill-rule="nonzero" transform="matrix(1 0 0 1 3.75 8.125)" fill="rgb(75, 85, 99)"/>
	</g>
</svg>
