<?xml version="1.0" encoding="utf-8" ?>
<svg xmlns="http://www.w3.org/2000/svg" xmlns:xlink="http://www.w3.org/1999/xlink" width="20" height="20" viewBox="0 0 20 20">
	<defs>
		<clipPath id="clipPath6268805792">
			<path d="M0 0L20 0L20 20L0 20L0 0Z" fill-rule="nonzero" transform="matrix(1 0 0 1 -0 -0)"/>
		</clipPath>
	</defs>
	<g clip-path="url(#clipPath6268805792)">
		<path d="M11.875 14.3695L11.875 0.9375Q11.8746 0.809277 11.7827 0.717327Q11.6907 0.625375 11.5607 0.624997L0.9375 0.625Q0.809277 0.625375 0.717326 0.717326Q0.625375 0.809277 0.624997 0.939315L0.625 14.6875Q0.626158 15.0742 0.900954 15.349Q1.17575 15.6238 1.56437 15.625L14.375 15.625L14.375 16.875L1.56063 16.875Q0.656437 16.8723 0.0170704 16.2329Q-0.622296 15.5936 -0.625 14.6875L-0.624997 0.935685Q-0.623123 0.290008 -0.166558 -0.166557Q0.290008 -0.623123 0.9375 -0.625L11.5643 -0.624997Q12.21 -0.623123 12.6666 -0.166559Q13.1231 0.290006 13.125 0.9375L13.125 14.3695L11.875 14.3695Z" fill-rule="nonzero" transform="matrix(1 0 0 1 1.875 1.875)" fill="rgb(75, 85, 99)"/>
		<path d="M1.875 13.75Q0.839464 13.75 0.107232 13.0178Q-0.625 12.2855 -0.625 11.25L-0.625 0Q-0.625 -0.0615571 -0.612991 -0.121931Q-0.600982 -0.182306 -0.577425 -0.239177Q-0.553868 -0.296048 -0.519669 -0.347231Q-0.485469 -0.398414 -0.441942 -0.441942Q-0.398414 -0.485469 -0.347231 -0.519668Q-0.296048 -0.553868 -0.239177 -0.577425Q-0.182306 -0.600982 -0.121931 -0.612991Q-0.0615571 -0.625 0 -0.625L2.8125 -0.625Q3.45971 -0.625 3.91735 -0.167355Q4.375 0.29029 4.375 0.9375L4.375 11.25Q4.375 12.2855 3.64277 13.0178Q2.91053 13.75 1.875 13.75ZM1.875 12.5Q2.39277 12.5 2.75888 12.1339Q3.125 11.7678 3.125 11.25L3.125 0.9375Q3.125 0.808059 3.03347 0.716528Q2.94194 0.625 2.8125 0.625L0 0.625L0 0L0.625 0L0.625 11.25Q0.625 11.7678 0.991117 12.1339Q1.35723 12.5 1.875 12.5Z" fill-rule="nonzero" transform="matrix(1 0 0 1 14.375 5)" fill="rgb(75, 85, 99)"/>
		<path d="M4.375 0C4.375 0.345175 4.65483 0.625 5 0.625L7.5 0.625C7.84517 0.625 8.125 0.345175 8.125 0C8.125 -0.345175 7.84517 -0.625 7.5 -0.625L5 -0.625C4.65483 -0.625 4.375 -0.345175 4.375 0ZM4.375 2.5C4.375 2.84518 4.65483 3.125 5 3.125L7.5 3.125C7.84517 3.125 8.125 2.84518 8.125 2.5C8.125 2.15482 7.84517 1.875 7.5 1.875L5 1.875C4.65483 1.875 4.375 2.15482 4.375 2.5ZM-0.625 5C-0.625 5.34517 -0.345175 5.625 0 5.625L7.5 5.625C7.84517 5.625 8.125 5.34517 8.125 5C8.125 4.65483 7.84517 4.375 7.5 4.375L0 4.375C-0.345175 4.375 -0.625 4.65483 -0.625 5ZM-0.625 7.5C-0.625 7.84517 -0.345175 8.125 0 8.125L7.5 8.125C7.84517 8.125 8.125 7.84517 8.125 7.5C8.125 7.15483 7.84517 6.875 7.5 6.875L0 6.875C-0.345175 6.875 -0.625 7.15483 -0.625 7.5ZM-0.625 10C-0.625 10.3452 -0.345175 10.625 0 10.625L7.5 10.625C7.84517 10.625 8.125 10.3452 8.125 10C8.125 9.65483 7.84517 9.375 7.5 9.375L0 9.375C-0.345175 9.375 -0.625 9.65483 -0.625 10Z" fill-rule="evenodd" transform="matrix(1 0 0 1 4.375 5)" fill="rgb(75, 85, 99)"/>
		<path d="M3.125 3.75L0.625 3.75C0.452411 3.75 0.305097 3.68898 0.183058 3.56694C0.0610195 3.4449 0 3.29759 0 3.125L0 0.625C0 0.452411 0.0610195 0.305097 0.183058 0.183058C0.305097 0.0610195 0.452411 0 0.625 0L3.125 0C3.29759 0 3.4449 0.0610193 3.56694 0.183058C3.68898 0.305097 3.75 0.452411 3.75 0.625L3.75 3.125C3.75 3.29759 3.68898 3.4449 3.56694 3.56694C3.4449 3.68898 3.29759 3.75 3.125 3.75Z" fill-rule="nonzero" transform="matrix(1 0 0 1 3.75 4.375)" fill="rgb(75, 85, 99)"/>
	</g>
</svg>
