<?xml version="1.0" encoding="utf-8" ?>
<svg xmlns="http://www.w3.org/2000/svg" xmlns:xlink="http://www.w3.org/1999/xlink" width="20" height="20" viewBox="0 0 20 20">
	<defs>
		<clipPath id="clipPath6704814078">
			<path d="M0 0L20 0L20 20L0 20L0 0Z" fill-rule="nonzero" transform="matrix(1 0 0 1 -0 -0)"/>
		</clipPath>
	</defs>
	<g clip-path="url(#clipPath6704814078)">
		<path d="M7.50931 3.79621Q7.44514 4.66159 7.09907 5.45665Q6.76475 6.22472 6.2142 6.82277Q5.6561 7.42902 4.96268 7.76647Q4.22595 8.125 3.44852 8.125Q2.6711 8.125 1.93413 7.7666Q1.24027 7.42918 0.681939 6.82306Q0.130867 6.22481 -0.203255 5.45667Q-0.549302 4.66111 -0.612333 3.79538Q-0.679029 2.8783 -0.40089 2.05717Q-0.128954 1.25437 0.436454 0.644439Q0.999122 0.0374661 1.7712 -0.29124Q2.55515 -0.625 3.44852 -0.625Q4.34203 -0.625 5.12927 -0.284274Q5.89903 0.0488898 6.46212 0.660752Q7.02565 1.27309 7.29768 2.07292Q7.57628 2.89208 7.50931 3.79617L7.50931 3.79621ZM6.26272 3.70383Q6.31089 3.05359 6.11425 2.47542Q5.92718 1.9254 5.54234 1.50722Q5.15896 1.09064 4.63276 0.862887Q4.08313 0.625 3.44852 0.625Q2.81016 0.625 2.26085 0.858866Q1.73436 1.08301 1.35316 1.49423Q0.969296 1.90832 0.783033 2.45821Q0.58602 3.03983 0.634368 3.70462Q0.681929 4.35787 0.943002 4.95808Q1.19305 5.53294 1.60133 5.97616Q1.9995 6.40843 2.48079 6.64248Q2.95893 6.875 3.44852 6.875Q3.93794 6.875 4.4157 6.6425Q4.89656 6.40849 5.29455 5.97616Q5.70259 5.53292 5.95294 4.95777Q6.21427 4.35741 6.26273 3.70379L6.26272 3.70383Z" fill-rule="nonzero" transform="matrix(1 0 0 1 6.55148 1.875)" fill="rgb(75, 85, 99)"/>
		<path d="M7.50009 0.625Q6.29639 0.625 5.15768 0.949357Q4.00015 1.27907 3.06872 1.89994Q2.10345 2.54336 1.48908 3.43082Q0.837059 4.37267 0.629234 5.52499Q0.615017 5.6038 0.639099 5.63898Q0.629528 5.625 0.625095 5.625L14.3751 5.625Q14.371 5.625 14.3615 5.63887Q14.3856 5.60375 14.3714 5.52502Q14.1634 4.37271 13.5113 3.43085Q12.8968 2.54337 11.9315 1.89994Q11.0001 1.27908 9.84252 0.949357Q8.7038 0.625 7.5001 0.625L7.50009 0.625ZM7.5001 -0.625Q8.87835 -0.625 10.185 -0.252824Q11.5306 0.130475 12.6248 0.859823Q13.7887 1.63561 14.539 2.7193Q15.3454 3.88399 15.6015 5.3031Q15.7068 5.8867 15.3929 6.34511Q15.2238 6.59201 14.9646 6.73057Q14.6944 6.875 14.3751 6.875L0.625095 6.875Q0.305862 6.875 0.035681 6.73049Q-0.223437 6.5919 -0.392424 6.345Q-0.706178 5.88659 -0.600919 5.30313Q-0.344983 3.88405 0.461327 2.71933Q1.21155 1.63563 2.37541 0.859828Q3.4696 0.130478 4.81524 -0.252824Q6.12183 -0.625 7.50009 -0.625L7.5001 -0.625Z" fill-rule="nonzero" transform="matrix(1 0 0 1 2.49991 11.875)" fill="rgb(75, 85, 99)"/>
	</g>
</svg>
